<?xml version="1.0" standalone="no"?>
<!DOCTYPE svg PUBLIC "-//W3C//DTD SVG 20010904//EN"
 "http://www.w3.org/TR/2001/REC-SVG-20010904/DTD/svg10.dtd">
<svg version="1.0" xmlns="http://www.w3.org/2000/svg"
 width="333.000000pt" height="333.000000pt" viewBox="0 0 333.000000 333.000000"
 preserveAspectRatio="xMidYMid meet">
<metadata>
Created by potrace 1.11, written by Peter Selinger 2001-2013
</metadata>
<g transform="translate(0.000000,333.000000) scale(0.100000,-0.100000)"
fill="#000000" stroke="none">
<path d="M0 2827 c0 -277 2 -506 4 -508 3 -2 25 -3 50 -1 34 3 46 8 46 20 0
12 3 13 12 4 17 -17 43 -15 69 8 18 14 20 20 9 21 -8 0 -4 5 10 9 37 12 140
12 140 0 0 -7 7 -7 21 1 12 6 69 14 128 19 117 8 141 15 141 37 0 13 10 14 60
9 33 -4 79 -13 101 -21 22 -8 57 -17 77 -19 20 -3 37 -5 37 -7 0 -7 167 -19
178 -12 5 3 0 11 -10 18 -27 20 -12 26 65 27 58 0 74 -3 93 -21 12 -11 32 -24
43 -27 21 -7 21 -7 1 -16 -17 -7 -15 -8 7 -5 16 3 33 -2 39 -9 6 -8 8 -14 4
-14 -4 0 -2 -7 5 -15 6 -8 9 -18 6 -24 -3 -5 0 -11 6 -14 13 -4 -92 -77 -111
-77 -5 0 -19 -14 -32 -31 -40 -56 16 -69 107 -25 28 13 76 31 107 39 31 8 63
22 72 30 8 9 24 19 35 22 11 3 20 14 20 23 0 18 44 42 89 49 58 9 336 10 359
2 19 -7 27 -6 37 8 16 22 29 12 21 -15 -5 -15 -37 -38 -66 -47 -18 -6 -50 -19
-80 -32 -19 -9 -43 -15 -54 -14 -11 2 -17 -2 -14 -10 4 -13 130 -58 166 -59
12 0 22 -4 22 -10 0 -5 18 -10 40 -10 27 0 40 -4 40 -14 0 -9 20 -15 62 -20
34 -3 80 -15 103 -26 23 -11 49 -20 58 -20 9 0 17 -4 17 -10 0 -5 17 -10 38
-10 20 -1 54 -7 75 -14 31 -12 39 -12 43 -1 7 18 84 15 84 -4 0 -10 -3 -11
-14 -2 -10 8 -16 9 -21 1 -3 -6 -10 -8 -14 -6 -4 3 -13 1 -21 -5 -12 -7 -11
-9 5 -10 11 -1 25 -3 30 -4 26 -6 31 -7 40 -9 6 -1 27 -9 48 -18 49 -22 146
-40 191 -35 31 4 37 1 42 -18 3 -14 -2 -35 -12 -52 -23 -36 -33 -42 -64 -44
l-25 -1 25 -8 c25 -8 24 -9 -20 -15 -68 -9 -125 -27 -133 -40 -9 -16 -47 -21
-47 -6 0 5 10 16 23 24 18 13 19 16 5 16 -10 1 -18 4 -19 9 -3 27 -9 46 -20
56 -9 8 -10 8 -5 -1 5 -9 0 -13 -13 -13 -12 0 -21 -4 -21 -9 0 -4 -20 -11 -45
-14 -45 -7 -76 -28 -88 -61 -9 -23 -43 -68 -85 -113 -18 -19 -31 -38 -28 -41
3 -3 -1 -13 -10 -23 -9 -10 -13 -22 -10 -28 10 -15 83 -33 105 -26 10 3 37 1
60 -4 25 -5 55 -6 74 0 19 5 45 5 62 0 24 -7 26 -9 8 -10 -12 -1 -24 -5 -28
-11 -3 -5 -12 -7 -20 -4 -7 3 -25 -2 -39 -11 -17 -11 -32 -14 -48 -9 -13 4
-26 7 -30 6 -4 -1 -30 -4 -57 -7 -39 -4 -51 -2 -51 9 0 21 -51 5 -64 -20 -6
-10 -12 -21 -13 -23 -2 -2 -8 1 -15 6 -16 13 -135 8 -152 -6 -7 -6 -16 -8 -20
-4 -14 15 -80 2 -98 -19 -15 -18 -20 -19 -34 -7 -13 11 -17 10 -24 -2 -6 -8
-6 -15 0 -17 16 -6 11 -20 -7 -24 -10 -2 -30 0 -45 5 -21 7 -32 5 -44 -7 -8
-9 -23 -16 -32 -16 -9 0 -28 -3 -42 -5 -14 -3 -19 -3 -12 1 6 3 10 9 7 14 -3
5 4 11 15 15 12 4 20 15 20 28 0 21 -5 22 -62 22 -56 0 -63 2 -60 19 2 11 -1
15 -8 11 -6 -4 -17 -1 -25 5 -8 7 -22 10 -30 6 -9 -3 -27 1 -40 10 -13 9 -29
12 -36 8 -9 -5 -10 6 -5 45 9 70 -5 90 -20 26 l-11 -50 -8 92 c-5 65 -13 99
-25 113 -25 29 -31 25 -13 -10 17 -36 10 -87 -18 -113 -11 -10 -19 -24 -19
-32 0 -8 -7 -15 -15 -15 -8 0 -15 6 -15 14 0 16 -34 31 -50 21 -5 -3 -10 -17
-10 -30 0 -36 -60 -104 -92 -104 -18 -1 -28 -6 -28 -16 0 -9 -11 -20 -25 -25
-17 -7 -25 -17 -25 -34 0 -34 -9 -55 -30 -66 -15 -8 -17 -6 -13 10 3 13 0 20
-8 21 -8 1 -21 2 -29 3 -8 2 -37 3 -65 5 -39 1 -46 4 -32 12 20 12 23 49 5 68
-14 13 -14 12 40 50 16 11 17 17 8 38 -9 19 -16 23 -37 19 -23 -4 -26 -2 -22
14 3 11 11 20 17 20 7 0 23 11 35 24 23 24 23 24 3 35 -12 6 -28 11 -37 11 -9
0 -28 9 -42 20 -33 26 -83 27 -83 3 0 -10 -13 -31 -29 -46 -23 -23 -28 -36
-27 -67 2 -33 -1 -40 -18 -42 -13 -2 -21 -10 -21 -21 0 -10 -8 -23 -18 -28 -9
-6 -15 -14 -12 -20 8 -12 -2 -11 -28 3 -21 10 -21 10 -7 -7 13 -16 13 -18 0
-13 -9 3 -16 20 -18 42 -2 28 -8 37 -20 35 -9 -1 -28 -1 -42 0 -21 1 -22 3
-10 12 11 8 -1 9 -45 4 -33 -3 -96 -8 -140 -12 -79 -6 -80 -6 -62 14 9 11 17
27 17 36 0 9 9 22 20 29 24 15 25 26 4 49 -18 20 -50 14 -64 -11 -8 -15 -16
-17 -51 -9 -31 7 -44 7 -50 -2 -4 -6 -20 -13 -35 -14 -16 -2 -51 -13 -77 -25
-45 -20 -48 -24 -42 -50 6 -25 3 -30 -19 -36 l-26 -6 0 -729 0 -729 1665 0
1665 0 0 928 0 928 -27 26 c-16 14 -35 28 -43 32 -16 7 17 0 50 -10 20 -6 20
-2 20 710 l0 716 -1665 0 -1665 0 0 -503z m521 -154 c4 -11 14 -23 23 -26 16
-6 23 -36 9 -38 -5 0 -23 -2 -41 -5 -19 -2 -41 0 -50 6 -10 5 -12 10 -4 10 6
0 12 3 12 8 0 9 -115 8 -185 -2 -123 -17 -122 -17 -101 -1 11 8 30 15 43 15
13 0 38 7 54 16 17 8 38 14 47 13 24 -3 92 12 92 20 0 4 21 6 47 6 37 -1 48
-5 54 -22z m-367 -97 c-3 -9 -18 -16 -33 -17 -14 0 -37 -2 -50 -5 -44 -8 -3
24 42 34 49 10 49 10 41 -12z m2955 -666 c30 0 40 -5 49 -25 13 -29 11 -31
-48 -34 -25 -2 -48 -5 -52 -8 -5 -2 -8 1 -8 6 0 6 -7 11 -15 11 -18 0 -19 14
-4 41 6 12 17 18 26 15 8 -3 32 -6 52 -6z m131 -5 c0 -12 -19 -12 -23 0 -4 9
-1 12 9 8 7 -3 14 -7 14 -8z m-1830 -383 c0 -5 -7 -9 -15 -9 -8 0 -15 4 -15 9
0 4 7 8 15 8 8 0 15 -4 15 -8z m-961 -66 c14 -17 7 -22 -33 -24 -16 -1 -34 -6
-40 -10 -22 -18 -106 0 -106 22 0 23 12 26 90 26 55 0 81 -4 89 -14z m-273
-43 c-10 -10 -19 5 -10 18 6 11 8 11 12 0 2 -7 1 -15 -2 -18z m1144 -33 c0 -5
-7 -10 -16 -10 -8 0 -12 5 -9 10 3 6 10 10 16 10 5 0 9 -4 9 -10z m1187 -4 c4
-7 13 -15 19 -17 7 -2 3 -12 -9 -24 -17 -17 -19 -17 -14 -2 4 9 2 17 -3 17 -6
0 -10 -6 -10 -14 0 -9 -8 -12 -27 -8 -24 4 -25 6 -8 12 18 6 18 7 -3 12 -26 7
-29 25 -4 31 33 9 51 7 59 -7z m-133 -12 c9 -24 0 -29 -19 -11 -19 19 -19 27
-1 27 8 0 17 -7 20 -16z m-702 -29 c-5 -26 -10 -29 -35 -19 -23 8 -9 44 18 44
18 0 21 -4 17 -25z m-1213 -71 c17 -16 -96 -29 -114 -14 -8 7 -24 11 -37 10
-34 -3 -45 1 -25 8 17 7 168 3 176 -4z"/>
<path d="M1321 1874 c0 -11 3 -14 6 -6 3 7 2 16 -1 19 -3 4 -6 -2 -5 -13z"/>
<path d="M384 1655 c-8 -19 12 -36 33 -28 19 7 12 37 -10 41 -9 2 -20 -4 -23
-13z"/>
<path d="M440 1640 c0 -5 5 -10 10 -10 6 0 10 5 10 10 0 6 -4 10 -10 10 -5 0
-10 -4 -10 -10z"/>
<path d="M1871 1521 c-14 -4 -26 -12 -29 -19 -4 -14 14 -16 23 -2 3 6 15 10
26 10 10 0 19 5 19 10 0 11 -4 11 -39 1z"/>
<path d="M2092 1500 l-27 -15 45 -5 c47 -6 70 3 70 26 0 17 -52 14 -88 -6z"/>
<path d="M2187 1494 c-12 -12 3 -22 23 -17 11 3 17 9 14 14 -6 10 -28 12 -37
3z"/>
</g>
</svg>
